# xmcd CD database file
#
# Track frame offsets:
#	150
#	26345
#	43000
#	65202
#	83195
#	100225
#	118447
#	139070
#	163745
#	181070
#	197422
#	218500
#	247827
#
# Disc length: 3534 seconds
#
# Revision: 2
# Processed by: cddbd v1.5PL3 Copyright (c) Steve Scherf et al.
# Submitted via: CDex 1.40Beta9
#
DISCID=b00dcc0d
DTITLE=Toots Thielemans - Bluesette
DYEAR=1900
DGENRE=Jazz
TTITLE0=Killer Joe
TTITLE1=The shadow of your smile
TTITLE2=Jane's theme
TTITLE3=Nobody does it better
TTITLE4=Here's that rainy day
TTITLE5=My ship
TTITLE6=I won't last a day without you
TTITLE7=Bluesette
TTITLE8=Quiet evenings
TTITLE9=Days of wine and roses
TTITLE10=Maybe september
TTITLE11=That misty red beast
TTITLE12=Rosa turbinata
EXTD=ID3G: 8
EXTT0=
EXTT1=
EXTT2=
EXTT3=
EXTT4=
EXTT5=
EXTT6=
EXTT7=
EXTT8=
EXTT9=
EXTT10=
EXTT11=
EXTT12=
PLAYORDER=
